<?xml version="1.0" encoding="UTF-8" standalone="no"?>
<!-- Created with Inkscape (http://www.inkscape.org/) -->

<svg
   xmlns:dc="http://purl.org/dc/elements/1.1/"
   xmlns:cc="http://creativecommons.org/ns#"
   xmlns:rdf="http://www.w3.org/1999/02/22-rdf-syntax-ns#"
   xmlns:svg="http://www.w3.org/2000/svg"
   xmlns="http://www.w3.org/2000/svg"
   xmlns:xlink="http://www.w3.org/1999/xlink"
   xmlns:sodipodi="http://sodipodi.sourceforge.net/DTD/sodipodi-0.dtd"
   xmlns:inkscape="http://www.inkscape.org/namespaces/inkscape"
   width="1080"
   height="1080"
   viewBox="0 0 285.74999 285.75001"
   version="1.1"
   id="svg8"
   inkscape:version="0.92.5 (2060ec1f9f, 2020-04-08)"
   sodipodi:docname="iv.svg">
  <defs
     id="defs2">
    <linearGradient
       inkscape:collect="always"
       id="linearGradient987">
      <stop
         style="stop-color:#23b5d3;stop-opacity:1"
         offset="0"
         id="stop983" />
      <stop
         style="stop-color:#279af1;stop-opacity:1"
         offset="1"
         id="stop985" />
    </linearGradient>
    <linearGradient
       inkscape:collect="always"
       id="linearGradient979">
      <stop
         style="stop-color:#23b5d3;stop-opacity:1"
         offset="0"
         id="stop975" />
      <stop
         style="stop-color:#279af1;stop-opacity:1"
         offset="1"
         id="stop977" />
    </linearGradient>
    <linearGradient
       inkscape:collect="always"
       xlink:href="#linearGradient979"
       id="linearGradient981"
       x1="125.97094"
       y1="130.79976"
       x2="236.26627"
       y2="198.64479"
       gradientUnits="userSpaceOnUse" />
    <linearGradient
       inkscape:collect="always"
       xlink:href="#linearGradient987"
       id="linearGradient989"
       x1="18.708866"
       y1="125.94749"
       x2="92.754425"
       y2="238.69107"
       gradientUnits="userSpaceOnUse" />
  </defs>
  <sodipodi:namedview
     id="base"
     pagecolor="#ffffff"
     bordercolor="#666666"
     borderopacity="1.0"
     inkscape:pageopacity="0.0"
     inkscape:pageshadow="2"
     inkscape:zoom="0.24748737"
     inkscape:cx="1124.4616"
     inkscape:cy="641.57581"
     inkscape:document-units="px"
     inkscape:current-layer="layer1"
     showgrid="false"
     units="px"
     inkscape:window-width="1366"
     inkscape:window-height="711"
     inkscape:window-x="0"
     inkscape:window-y="0"
     inkscape:window-maximized="1"
     showguides="true"
     inkscape:guide-bbox="true" />
  <metadata
     id="metadata5">
    <rdf:RDF>
      <cc:Work
         rdf:about="">
        <dc:format>image/svg+xml</dc:format>
        <dc:type
           rdf:resource="http://purl.org/dc/dcmitype/StillImage" />
        <dc:title></dc:title>
      </cc:Work>
    </rdf:RDF>
  </metadata>
  <g
     inkscape:label="Layer 1"
     inkscape:groupmode="layer"
     id="layer1"
     transform="translate(0,-11.249983)">
    <g
       id="g1023"
       transform="translate(0,8.9958335)">
      <path
         inkscape:connector-curvature="0"
         id="path832"
         d="m 166.96002,15.006402 c -9.82587,-0.108126 -13.79789,5.641662 -14.84819,20.852198 -0.61973,8.975862 -1.18244,11.155394 -5.38318,20.881129 -6.19603,14.345455 -16.25009,33.999589 -21.40751,41.845162 -1.82505,2.776319 -5.4356,7.317739 -8.83251,11.198269 a 13.397412,13.397412 0 0 0 -3.3915,-0.45306 13.397412,13.397412 0 0 0 -13.39826,13.39628 13.397412,13.397412 0 0 0 13.39826,13.39825 13.397412,13.397412 0 0 0 13.39825,-13.39825 13.397412,13.397412 0 0 0 -0.52444,-3.68648 c 3.44076,-3.95351 7.81356,-9.63977 10.56008,-13.80506 6.37669,-9.67062 18.93586,-34.711182 25.06701,-49.975878 3.33289,-8.297852 3.77424,-10.363284 3.80408,-17.93309 0.0187,-4.705434 0.32274,-8.844365 0.67484,-9.196943 0.19103,-0.19118 0.59988,-0.266435 1.15686,-0.24681 2.41351,0.08507 7.6098,1.942826 9.93926,3.775174 4.79539,3.772074 6.00545,7.389913 5.90956,17.678588 -0.0746,8.000106 -0.6704,11.268105 -4.04896,22.23658 -8.56865,27.818191 -8.10458,40.249089 1.62149,43.484039 2.54906,0.84781 5.49493,0.5857 14.71513,-1.30725 15.10672,-3.10153 36.35946,-3.56836 44.74111,-0.98333 10.26297,3.16522 14.13078,10.78551 10.22271,20.1388 -2.14618,5.13653 -1.88377,6.71353 2.07269,12.45736 3.16248,4.58865 3.50973,5.70495 3.14857,10.09541 -0.30035,3.65055 -1.3561,6.31565 -4.04899,10.23043 -2.00261,2.91131 -3.64022,5.63268 -3.64022,6.04835 0,0.41576 0.71745,2.4724 1.59455,4.57149 1.89355,4.53202 2.07861,11.96822 0.37982,15.28006 -0.66834,1.303 -3.22938,4.45012 -5.68976,6.99314 -4.42337,4.57193 -4.46598,4.68226 -3.85617,9.83132 0.87538,7.39105 -0.81971,12.0901 -6.00985,16.65861 -5.42184,4.77248 -13.56075,7.55018 -25.90568,8.84024 -5.15802,0.5391 -11.15511,0.91433 -13.32692,0.83486 -2.17178,-0.0795 -14.61022,-0.47631 -27.64097,-0.88113 -17.14749,-0.53268 -31.89796,-1.43112 -42.90945,-2.58361 0.45571,-1.21115 0.31676,-2.55899 -0.92934,-4.48859 -3.39023,-5.25035 -6.21912,-1.30766 -12.4612,-0.99683 -6.24203,0.3108 -9.44545,-3.33038 -12.297291,2.23081 -2.85184,5.56119 1.973701,6.03854 5.363931,11.2889 3.39019,5.25035 1.84046,9.8452 8.08249,9.5344 4.09321,-0.20372 4.64749,-2.19144 5.34464,-5.09209 1.67548,0.17238 3.15962,0.32312 5.59918,0.58033 8.56835,0.90337 25.79617,1.99833 38.28397,2.43326 33.62097,1.17103 51.68937,0.63364 60.86376,-1.80853 19.64074,-5.22823 30.02291,-15.4553 31.21562,-30.74905 0.41613,-5.33557 1.00967,-7.0181 3.46672,-9.84091 6.20715,-7.1313 8.82647,-17.53321 6.67499,-26.5015 -1.11854,-4.66271 -1.04097,-5.17133 1.31882,-8.74576 5.36154,-8.121 5.44113,-19.42001 0.2026,-28.4527 -1.60011,-2.7592 -2.06101,-4.5744 -1.51161,-5.94624 0.43482,-1.08589 0.82185,-4.98761 0.8599,-8.67058 0.15186,-14.65734 -9.67663,-24.28379 -28.01306,-27.438521 -8.35061,-1.436684 -27.01392,-0.693381 -39.50255,1.573321 -4.86628,0.88325 -9.3086,1.68416 -9.8718,1.78154 -1.964,0.33916 -0.45101,-8.710134 4.17816,-24.995638 4.34113,-15.271774 4.63189,-17.027837 4.65055,-28.134581 0.0187,-10.987466 -0.18133,-12.252742 -2.73595,-17.454922 -4.68451,-9.539297 -13.40632,-15.388384 -24.28032,-16.28265 -0.70797,-0.0582 -1.38871,-0.09111 -2.04377,-0.09831 z M 75.746324,245.70909 c 0.693904,3.7e-4 1.083278,0.0112 1.831692,0.0112 0.421536,-4.8e-4 0.66801,-0.007 1.073913,-0.0112 z"
         style="fill:url(#linearGradient981);fill-opacity:1;stroke-width:0.98717773" />
      <rect
         style="opacity:1;fill:url(#linearGradient989);fill-opacity:1;stroke:none;stroke-width:0.98717773"
         id="rect837"
         width="82.147293"
         height="122.69209"
         x="10.607136"
         y="115.99898"
         ry="20.791809" />
    </g>
    <rect
       style="fill:#ea526f;stroke-width:0.17498712"
       x="0.62672293"
       y="257.96786"
       width="17.498713"
       height="38.497166"
       id="rect935" />
    <rect
       style="fill:#070600;stroke-width:0.17498712"
       x="18.125435"
       y="257.96786"
       width="17.498713"
       height="38.497166"
       id="rect937" />
    <rect
       style="fill:#f7f7ff;stroke-width:0.17498712"
       x="35.624146"
       y="257.96786"
       width="17.498713"
       height="38.497166"
       id="rect939" />
    <rect
       style="fill:#23b5d3;stroke-width:0.17498712"
       x="53.12286"
       y="257.96786"
       width="17.498713"
       height="38.497166"
       id="rect941" />
    <rect
       style="fill:#279af1;stroke-width:0.17498712"
       x="70.621574"
       y="257.96786"
       width="17.498713"
       height="38.497166"
       id="rect943" />
  </g>
</svg>
